# xmcd
#
# Track frame offsets: 
#        150
#        26131
#        45263
#        57802
#        78016
#        105563
#        139820
#        147448
#        170755
#        198090
#        216029
#        236578
#
# Disc length: 3627 seconds
#
# Revision: 0
# Processed by: cddbd v1.5.2PL0 Copyright (c) Steve Scherf et al.
# Submitted via: ExactAudioCopy v1.0b3
#
DISCID=9e0e290c
DTITLE=Zac Brown Band - Pass The Jar - Zac Brown Band and Friends Live
DTITLE=from the Fabulous Fox Theatre In Atlanta
DYEAR=2010
DGENRE=Country
TTITLE0=Can't You See (Featuring Kid Rock)
TTITLE1=Highway 20 Ride
TTITLE2=Whiskey's Gone
TTITLE3=Colder Weather (Featuring Little Big town)
TTITLE4=Junkyard (Featuring Angie Aparo)
TTITLE5=Free, Into The Mystic (Featuring Jody and Rory)
TTITLE6=America The Beautiful
TTITLE7=Chicken Fried
TTITLE8=I Shall Be Released
TTITLE9=Bar (Featuring Sonia Leigh)
TTITLE10=Toes (Featuring Shawn Mullins)
TTITLE11=We're Gonna Make This Day (Featuring Massif)
EXTD=
EXTT0=
EXTT1=
EXTT2=
EXTT3=
EXTT4=
EXTT5=
EXTT6=
EXTT7=
EXTT8=
EXTT9=
EXTT10=
EXTT11=
PLAYORDER=
